<svg width="20" height="20" viewBox="0 0 20 20" fill="none" xmlns="http://www.w3.org/2000/svg">
<path d="M8.19667 16.1484L8.02828 15.8616C6.76536 13.7099 3.40575 9.13866 3.37198 9.09274L3.27344 8.95885L4.53705 7.71027L8.15382 10.2358C10.4206 7.3062 12.5323 5.29001 13.9137 4.10839C15.4398 2.80304 16.4061 2.21889 16.4462 2.19466L16.4919 2.16724H18.7189L18.3417 2.50316C13.5794 6.74489 8.4129 15.7688 8.36125 15.8595L8.19667 16.1484Z" fill="#212529"/>
<path d="M8.19655 4.59842C8.3655 4.59842 8.50247 4.46145 8.50247 4.2925C8.50247 4.12354 8.3655 3.98657 8.19655 3.98657C8.02759 3.98657 7.89062 4.12354 7.89062 4.2925C7.89062 4.46145 8.02759 4.59842 8.19655 4.59842Z" fill="#212529"/>
<path d="M8.19655 17.8325C8.3655 17.8325 8.50247 17.6956 8.50247 17.5266C8.50247 17.3577 8.3655 17.2207 8.19655 17.2207C8.02759 17.2207 7.89062 17.3577 7.89062 17.5266C7.89062 17.6956 8.02759 17.8325 8.19655 17.8325Z" fill="#212529"/>
<path d="M1.58717 11.2154C1.75613 11.2154 1.8931 11.0784 1.8931 10.9094C1.8931 10.7405 1.75613 10.6035 1.58717 10.6035C1.41822 10.6035 1.28125 10.7405 1.28125 10.9094C1.28125 11.0784 1.41822 11.2154 1.58717 11.2154Z" fill="#212529"/>
<path d="M14.8059 11.2154C14.9749 11.2154 15.1118 11.0784 15.1118 10.9094C15.1118 10.7405 14.9749 10.6035 14.8059 10.6035C14.637 10.6035 14.5 10.7405 14.5 10.9094C14.5 11.0784 14.637 11.2154 14.8059 11.2154Z" fill="#212529"/>
<path d="M3.51686 15.8946C3.68582 15.8946 3.82278 15.7576 3.82278 15.5886C3.82278 15.4197 3.68582 15.2827 3.51686 15.2827C3.3479 15.2827 3.21094 15.4197 3.21094 15.5886C3.21094 15.7576 3.3479 15.8946 3.51686 15.8946Z" fill="#212529"/>
<path d="M3.52077 6.54153C3.68972 6.54153 3.82669 6.40457 3.82669 6.23561C3.82669 6.06665 3.68972 5.92969 3.52077 5.92969C3.35181 5.92969 3.21484 6.06665 3.21484 6.23561C3.21484 6.40457 3.35181 6.54153 3.52077 6.54153Z" fill="#212529"/>
<path d="M12.8723 15.8894C13.0413 15.8894 13.1783 15.7525 13.1783 15.5835C13.1783 15.4146 13.0413 15.2776 12.8723 15.2776C12.7034 15.2776 12.5664 15.4146 12.5664 15.5835C12.5664 15.7525 12.7034 15.8894 12.8723 15.8894Z" fill="#212529"/>
<path d="M2.46608 7.90677C2.63504 7.90677 2.772 7.7698 2.772 7.60084C2.772 7.43189 2.63504 7.29492 2.46608 7.29492C2.29712 7.29492 2.16016 7.43189 2.16016 7.60084C2.16016 7.7698 2.29712 7.90677 2.46608 7.90677Z" fill="#212529"/>
<path d="M13.927 14.524C14.096 14.524 14.2329 14.387 14.2329 14.218C14.2329 14.0491 14.096 13.9121 13.927 13.9121C13.7581 13.9121 13.6211 14.0491 13.6211 14.218C13.6211 14.387 13.7581 14.524 13.927 14.524Z" fill="#212529"/>
<path d="M4.89186 16.94C5.06082 16.94 5.19778 16.803 5.19778 16.634C5.19778 16.4651 5.06082 16.3281 4.89186 16.3281C4.7229 16.3281 4.58594 16.4651 4.58594 16.634C4.58594 16.803 4.7229 16.94 4.89186 16.94Z" fill="#212529"/>
<path d="M6.48561 4.82376C6.65457 4.82376 6.79153 4.68679 6.79153 4.51784C6.79153 4.34888 6.65457 4.21191 6.48561 4.21191C6.31665 4.21191 6.17969 4.34888 6.17969 4.51784C6.17969 4.68679 6.31665 4.82376 6.48561 4.82376Z" fill="#212529"/>
<path d="M9.90749 17.607C10.0764 17.607 10.2134 17.47 10.2134 17.301C10.2134 17.1321 10.0764 16.9951 9.90749 16.9951C9.73853 16.9951 9.60156 17.1321 9.60156 17.301C9.60156 17.47 9.73853 17.607 9.90749 17.607Z" fill="#212529"/>
<path d="M1.80983 12.9263C1.97879 12.9263 2.11575 12.7893 2.11575 12.6204C2.11575 12.4514 1.97879 12.3145 1.80983 12.3145C1.64087 12.3145 1.50391 12.4514 1.50391 12.6204C1.50391 12.7893 1.64087 12.9263 1.80983 12.9263Z" fill="#212529"/>
<path d="M14.5794 9.50467C14.7483 9.50467 14.8853 9.3677 14.8853 9.19875C14.8853 9.02979 14.7483 8.89282 14.5794 8.89282C14.4104 8.89282 14.2734 9.02979 14.2734 9.19875C14.2734 9.3677 14.4104 9.50467 14.5794 9.50467Z" fill="#212529"/>
<path d="M2.46608 14.524C2.63504 14.524 2.772 14.387 2.772 14.218C2.772 14.0491 2.63504 13.9121 2.46608 13.9121C2.29712 13.9121 2.16016 14.0491 2.16016 14.218C2.16016 14.387 2.29712 14.524 2.46608 14.524Z" fill="#212529"/>
<path d="M11.5012 16.94C11.6702 16.94 11.8072 16.803 11.8072 16.634C11.8072 16.4651 11.6702 16.3281 11.5012 16.3281C11.3323 16.3281 11.1953 16.4651 11.1953 16.634C11.1953 16.803 11.3323 16.94 11.5012 16.94Z" fill="#212529"/>
<path d="M4.89186 5.491C5.06082 5.491 5.19778 5.35403 5.19778 5.18507C5.19778 5.01612 5.06082 4.87915 4.89186 4.87915C4.7229 4.87915 4.58594 5.01612 4.58594 5.18507C4.58594 5.35403 4.7229 5.491 4.89186 5.491Z" fill="#212529"/>
<path d="M9.90749 4.82376C10.0764 4.82376 10.2134 4.68679 10.2134 4.51784C10.2134 4.34888 10.0764 4.21191 9.90749 4.21191C9.73853 4.21191 9.60156 4.34888 9.60156 4.51784C9.60156 4.68679 9.73853 4.82376 9.90749 4.82376Z" fill="#212529"/>
<path d="M6.48561 17.607C6.65457 17.607 6.79153 17.47 6.79153 17.301C6.79153 17.1321 6.65457 16.9951 6.48561 16.9951C6.31665 16.9951 6.17969 17.1321 6.17969 17.301C6.17969 17.47 6.31665 17.607 6.48561 17.607Z" fill="#212529"/>
<path d="M14.5794 12.9263C14.7483 12.9263 14.8853 12.7893 14.8853 12.6204C14.8853 12.4514 14.7483 12.3145 14.5794 12.3145C14.4104 12.3145 14.2734 12.4514 14.2734 12.6204C14.2734 12.7893 14.4104 12.9263 14.5794 12.9263Z" fill="#212529"/>
<path d="M1.80983 9.50467C1.97879 9.50467 2.11575 9.3677 2.11575 9.19875C2.11575 9.02979 1.97879 8.89282 1.80983 8.89282C1.64087 8.89282 1.50391 9.02979 1.50391 9.19875C1.50391 9.3677 1.64087 9.50467 1.80983 9.50467Z" fill="#212529"/>
</svg>
