<svg width="20" height="20" viewBox="0 0 20 20" fill="none" xmlns="http://www.w3.org/2000/svg">
<path d="M8.19667 16.1487L8.02828 15.8619C6.76536 13.7101 3.40575 9.1389 3.37198 9.09298L3.27344 8.9591L4.53705 7.71052L8.15382 10.236C10.4206 7.30644 12.5323 5.29025 13.9137 4.10863C15.4398 2.80329 16.4061 2.21913 16.4462 2.1949L16.4919 2.16748H18.7189L18.3417 2.5034C13.5794 6.74513 8.4129 15.769 8.36125 15.8597L8.19667 16.1487Z" fill="#006064"/>
<path d="M8.19655 4.5983C8.3655 4.5983 8.50247 4.46133 8.50247 4.29237C8.50247 4.12342 8.3655 3.98645 8.19655 3.98645C8.02759 3.98645 7.89062 4.12342 7.89062 4.29237C7.89062 4.46133 8.02759 4.5983 8.19655 4.5983Z" fill="#006064"/>
<path d="M8.19655 17.8325C8.3655 17.8325 8.50247 17.6956 8.50247 17.5266C8.50247 17.3577 8.3655 17.2207 8.19655 17.2207C8.02759 17.2207 7.89062 17.3577 7.89062 17.5266C7.89062 17.6956 8.02759 17.8325 8.19655 17.8325Z" fill="#006064"/>
<path d="M1.58717 11.2155C1.75613 11.2155 1.8931 11.0785 1.8931 10.9096C1.8931 10.7406 1.75613 10.6036 1.58717 10.6036C1.41822 10.6036 1.28125 10.7406 1.28125 10.9096C1.28125 11.0785 1.41822 11.2155 1.58717 11.2155Z" fill="#006064"/>
<path d="M14.8059 11.2155C14.9749 11.2155 15.1118 11.0785 15.1118 10.9096C15.1118 10.7406 14.9749 10.6036 14.8059 10.6036C14.637 10.6036 14.5 10.7406 14.5 10.9096C14.5 11.0785 14.637 11.2155 14.8059 11.2155Z" fill="#006064"/>
<path d="M3.51686 15.8944C3.68582 15.8944 3.82278 15.7575 3.82278 15.5885C3.82278 15.4196 3.68582 15.2826 3.51686 15.2826C3.3479 15.2826 3.21094 15.4196 3.21094 15.5885C3.21094 15.7575 3.3479 15.8944 3.51686 15.8944Z" fill="#006064"/>
<path d="M3.52467 6.54141C3.69363 6.54141 3.8306 6.40444 3.8306 6.23549C3.8306 6.06653 3.69363 5.92957 3.52467 5.92957C3.35572 5.92957 3.21875 6.06653 3.21875 6.23549C3.21875 6.40444 3.35572 6.54141 3.52467 6.54141Z" fill="#006064"/>
<path d="M12.8684 15.8894C13.0374 15.8894 13.1743 15.7525 13.1743 15.5835C13.1743 15.4146 13.0374 15.2776 12.8684 15.2776C12.6995 15.2776 12.5625 15.4146 12.5625 15.5835C12.5625 15.7525 12.6995 15.8894 12.8684 15.8894Z" fill="#006064"/>
<path d="M2.46999 7.90689C2.63894 7.90689 2.77591 7.76992 2.77591 7.60097C2.77591 7.43201 2.63894 7.29504 2.46999 7.29504C2.30103 7.29504 2.16406 7.43201 2.16406 7.60097C2.16406 7.76992 2.30103 7.90689 2.46999 7.90689Z" fill="#006064"/>
<path d="M13.9309 14.524C14.0999 14.524 14.2368 14.387 14.2368 14.218C14.2368 14.0491 14.0999 13.9121 13.9309 13.9121C13.762 13.9121 13.625 14.0491 13.625 14.218C13.625 14.387 13.762 14.524 13.9309 14.524Z" fill="#006064"/>
<path d="M4.89186 16.9398C5.06082 16.9398 5.19778 16.8029 5.19778 16.6339C5.19778 16.465 5.06082 16.328 4.89186 16.328C4.7229 16.328 4.58594 16.465 4.58594 16.6339C4.58594 16.8029 4.7229 16.9398 4.89186 16.9398Z" fill="#006064"/>
<path d="M6.48561 4.82388C6.65457 4.82388 6.79153 4.68692 6.79153 4.51796C6.79153 4.349 6.65457 4.21204 6.48561 4.21204C6.31665 4.21204 6.17969 4.349 6.17969 4.51796C6.17969 4.68692 6.31665 4.82388 6.48561 4.82388Z" fill="#006064"/>
<path d="M9.90749 17.6071C10.0764 17.6071 10.2134 17.4701 10.2134 17.3012C10.2134 17.1322 10.0764 16.9952 9.90749 16.9952C9.73853 16.9952 9.60156 17.1322 9.60156 17.3012C9.60156 17.4701 9.73853 17.6071 9.90749 17.6071Z" fill="#006064"/>
<path d="M1.81374 12.9262C1.98269 12.9262 2.11966 12.7892 2.11966 12.6203C2.11966 12.4513 1.98269 12.3143 1.81374 12.3143C1.64478 12.3143 1.50781 12.4513 1.50781 12.6203C1.50781 12.7892 1.64478 12.9262 1.81374 12.9262Z" fill="#006064"/>
<path d="M14.5794 9.50467C14.7483 9.50467 14.8853 9.3677 14.8853 9.19875C14.8853 9.02979 14.7483 8.89282 14.5794 8.89282C14.4104 8.89282 14.2734 9.02979 14.2734 9.19875C14.2734 9.3677 14.4104 9.50467 14.5794 9.50467Z" fill="#006064"/>
<path d="M2.46999 14.524C2.63894 14.524 2.77591 14.387 2.77591 14.218C2.77591 14.0491 2.63894 13.9121 2.46999 13.9121C2.30103 13.9121 2.16406 14.0491 2.16406 14.218C2.16406 14.387 2.30103 14.524 2.46999 14.524Z" fill="#006064"/>
<path d="M11.5012 16.9398C11.6702 16.9398 11.8072 16.8029 11.8072 16.6339C11.8072 16.465 11.6702 16.328 11.5012 16.328C11.3323 16.328 11.1953 16.465 11.1953 16.6339C11.1953 16.8029 11.3323 16.9398 11.5012 16.9398Z" fill="#006064"/>
<path d="M4.89186 5.491C5.06082 5.491 5.19778 5.35403 5.19778 5.18507C5.19778 5.01612 5.06082 4.87915 4.89186 4.87915C4.7229 4.87915 4.58594 5.01612 4.58594 5.18507C4.58594 5.35403 4.7229 5.491 4.89186 5.491Z" fill="#006064"/>
<path d="M9.90749 4.82388C10.0764 4.82388 10.2134 4.68692 10.2134 4.51796C10.2134 4.349 10.0764 4.21204 9.90749 4.21204C9.73853 4.21204 9.60156 4.349 9.60156 4.51796C9.60156 4.68692 9.73853 4.82388 9.90749 4.82388Z" fill="#006064"/>
<path d="M6.48561 17.6071C6.65457 17.6071 6.79153 17.4701 6.79153 17.3012C6.79153 17.1322 6.65457 16.9952 6.48561 16.9952C6.31665 16.9952 6.17969 17.1322 6.17969 17.3012C6.17969 17.4701 6.31665 17.6071 6.48561 17.6071Z" fill="#006064"/>
<path d="M14.5794 12.9262C14.7483 12.9262 14.8853 12.7892 14.8853 12.6203C14.8853 12.4513 14.7483 12.3143 14.5794 12.3143C14.4104 12.3143 14.2734 12.4513 14.2734 12.6203C14.2734 12.7892 14.4104 12.9262 14.5794 12.9262Z" fill="#006064"/>
<path d="M1.81374 9.50467C1.98269 9.50467 2.11966 9.3677 2.11966 9.19875C2.11966 9.02979 1.98269 8.89282 1.81374 8.89282C1.64478 8.89282 1.50781 9.02979 1.50781 9.19875C1.50781 9.3677 1.64478 9.50467 1.81374 9.50467Z" fill="#006064"/>
</svg>
